<?xml version="1.0" encoding="UTF-8"?>
<svg viewBox="0 0 659.85 1124.2" xmlns="http://www.w3.org/2000/svg">
 <defs>
  <filter id="au" x="-.065179" y="-.38338" width="1.1304" height="1.7668">
   <feGaussianBlur stdDeviation="3.629039"/>
  </filter>
  <filter id="bg" x="-.30402" y="-.29694" width="1.608" height="1.5939">
   <feGaussianBlur stdDeviation="2.631606"/>
  </filter>
  <filter id="at" x="-.057951" y="-.37495" width="1.1159" height="1.7499">
   <feGaussianBlur stdDeviation="3.629039"/>
  </filter>
  <filter id="ae" x="-.40466" y="-.2959" width="1.8093" height="1.5918">
   <feGaussianBlur stdDeviation="2.631606"/>
  </filter>
  <filter id="aq" x="-.049079" y="-.29099" width="1.0982" height="1.582">
   <feGaussianBlur stdDeviation="3.629039"/>
  </filter>
  <filter id="as" x="-.058129" y="-.38902" width="1.1163" height="1.778">
   <feGaussianBlur stdDeviation="3.629039"/>
  </filter>
  <filter id="av" x="-.071386" y="-.11966" width="1.1428" height="1.2393">
   <feGaussianBlur stdDeviation="3.629039"/>
  </filter>
  <filter id="bf" x="-.33961" y="-.28963" width="1.6792" height="1.5793">
   <feGaussianBlur stdDeviation="2.631606"/>
  </filter>
  <filter id="be" x="-.43208" y="-.31574" width="1.8642" height="1.6315">
   <feGaussianBlur stdDeviation="2.631606"/>
  </filter>
  <filter id="aw">
   <feGaussianBlur stdDeviation="3.629039"/>
  </filter>
  <filter id="ba">
   <feGaussianBlur stdDeviation="3.629039"/>
  </filter>
  <filter id="ay" x="-.036723" y="-.27034" width="1.0734" height="1.5407">
   <feGaussianBlur stdDeviation="3.629039"/>
  </filter>
  <filter id="ax" x="-.038733" y="-.27134" width="1.0775" height="1.5427">
   <feGaussianBlur stdDeviation="3.629039"/>
  </filter>
  <filter id="az" x="-.035115" y="-.6076" width="1.0702" height="2.2152">
   <feGaussianBlur stdDeviation="3.629039"/>
  </filter>
  <filter id="ap" x="-.048918" y="-.34308" width="1.0978" height="1.6862">
   <feGaussianBlur stdDeviation="3.629039"/>
  </filter>
  <filter id="ao" x="-.10275" y="-.50583" width="1.2055" height="2.0117">
   <feGaussianBlur stdDeviation="3.629039"/>
  </filter>
  <filter id="ah" x="-.025588" y="-.51318" width="1.0512" height="2.0264">
   <feGaussianBlur stdDeviation="3.629039"/>
  </filter>
  <filter id="af" x="-.022912" y="-.80683" width="1.0458" height="2.6137">
   <feGaussianBlur stdDeviation="3.629039"/>
  </filter>
  <filter id="ar" x="-.044003" y="-.28222" width="1.088" height="1.5644">
   <feGaussianBlur stdDeviation="3.629039"/>
  </filter>
  <filter id="bd">
   <feGaussianBlur stdDeviation="24.270561"/>
  </filter>
  <filter id="ag" x="-.025178" y="-.4338" width="1.0504" height="1.8676">
   <feGaussianBlur stdDeviation="3.629039"/>
  </filter>
  <filter id="an" x="-.079725" y="-.81278" width="1.1595" height="2.6256">
   <feGaussianBlur stdDeviation="3.629039"/>
  </filter>
  <filter id="am" x="-.080111" y="-.68876" width="1.1602" height="2.3775">
   <feGaussianBlur stdDeviation="3.629039"/>
  </filter>
  <filter id="ai" x="-.02468" y="-.51281" width="1.0494" height="2.0256">
   <feGaussianBlur stdDeviation="3.629039"/>
  </filter>
  <filter id="aj" x="-.024475" y="-.44505" width="1.049" height="1.8901">
   <feGaussianBlur stdDeviation="3.629039"/>
  </filter>
  <filter id="al" x="-.17646" y="-.81308" width="1.3529" height="2.6262">
   <feGaussianBlur stdDeviation="3.629039"/>
  </filter>
  <filter id="ak" x="-.023395" y="-.4163" width="1.0468" height="1.8326">
   <feGaussianBlur stdDeviation="3.629039"/>
  </filter>
  <linearGradient id="bc" y1=".51028" y2=".51028">
   <stop stop-color="#7e7d7e" offset="0"/>
   <stop stop-color="#7e7d7e" offset=".79646"/>
   <stop stop-color="#505050" offset="1"/>
  </linearGradient>
  <linearGradient id="bb" x1="-.031024" x2="2.0689" y1="-.44362" y2="-.44362">
   <stop stop-color="#f3f0ed" stop-opacity=".119" offset="0"/>
   <stop stop-color="#f3f0ed" stop-opacity=".498" offset=".5"/>
   <stop stop-color="#f3f0ed" stop-opacity="0" offset="1"/>
  </linearGradient>
  <linearGradient id="bh" x1=".5" x2=".5" y1=".087932" y2=".91207">
   <stop stop-color="#020202" offset="0"/>
   <stop stop-color="#020202" offset=".93438"/>
   <stop stop-color="#9e9c9a" offset=".96867"/>
   <stop stop-color="#b5a183" offset="1"/>
  </linearGradient>
 </defs>
 <g fill-rule="evenodd">
  <path d="m459.66 828.06s6.541 3.2717 18.455-3.8495c15.437-9.2275 35.348-46.966 35.836-57.744 2.054-45.379 8.2195-91.421 20.796-122.06 28.534-69.506 124.74-174.16 124.73-330.94-0.006592-144.53-142.54-311.85-309.53-313.09-271.41-2.0516-346.95 220.82-349.52 328.9-1.964 82.573 43.496 172.7 107.02 280.49 63.518 107.79 30.061 119.98 49.687 167.95 13.831 33.804 30.371 48.4 30.371 48.4l272.16 1.9443z" fill="#b3b3b3" stroke="#666" stroke-width=".731"/>
  <path d="m470.5 826.77c14.646-8.9286 33.149-63.114 33.088-73.498-0.25244-43.677 7.7569-87.992 19.625-117.48 26.928-66.9 117.72-167.63 117.71-318.53-0.006165-139.11-134.52-300.15-292.11-301.35-256.13-1.9747-327.42 212.54-329.85 316.56-1.8534 79.476 41.048 166.22 100.99 269.97 59.943 103.75 28.369 115.48 46.89 161.65 13.053 32.536 27.93 59.241 27.93 59.241s264.42 10.321 275.72 3.43z" fill="#fff" filter="url(#bd)" stroke-width=".953"/>
  <path d="m248.23 1081s13.572 16.286 21.715 23.072c8.143 6.7858 2.6771 7.1052 18.629 12.044 15.952 4.9382 26.18 8.3141 45.18 7.7095 19.039-0.60547 22.084-4.3379 34.802-7.0708 12.718-2.7327 16.069-3.8606 16.069-3.8606l38.679-38.679-175.07 6.7858z" fill="url(#bh)" stroke="#000" stroke-width=".731"/>
  <path d="m479.58 826.06s-2.4862 1.786-8.7349 4.3972c-1.6891 0.70581-1.623 11.563-1.5386 19.859 0.069763 6.6853 8.14 10.678 8.14 21.314 0 10.637-9.0309 6.2704-10.965 13.039-1.9339 6.7687 0.15839 11.838 0.15839 11.838s9.3413 5.1105 10.308 12.846c0.96698 7.7356-8.7671 9.1068-11.668 14.909-2.9009 5.8019 2.485 15.747 2.485 15.747s8.767-0.797 8.5971 10.285c-0.13348 8.7015-11.709 9.5111-12.676 15.313-0.96698 5.8018-1.6502 13.204 8.4039 15.342 2.0099 0.42749 6.3876 2.7362 2.8481 12.33-2.8792 7.804-12.272 6.6928-12.272 13.462 0 6.7687-0.052795 9.7985 4.782 11.732 4.8348 1.934 9.5586 6.032 2.6782 13.227-6.5344 6.8332-38.476 41.044-48.412 43.706-18.182 4.8721-58.932 6.5873-88.908 6.5873s-75.199 1.4624-90.215-2.561c-3.8429-1.0297-37.02-31.898-40.378-38.221-4.4667-8.411-0.91898-14.472-1.8811-20.699-0.901-5.831-3.5575-1.3482-8.3511-5.3448-8.9432-7.4563-0.74423-15.665 3.1236-17.598 3.8678-1.934 6.6748-13.45-0.093964-20.219-6.7687-6.7687-9.7914-11.687-4.0198-17.224 11.365-10.902 7.6533-16.28 1.8516-23.049-5.8018-6.7687-5.7371-9.8263-3.3812-15.419 2.3559-5.5922 10.149 0.66528 8.216-14.089-2.0011-15.274-3.1036-4.224-7.8529-14.762-3.3712-7.4802 2.6021-46.701 2.6021-46.701l-2.2738-3.3052-1.424-14.153-2.9009-2.9009s140.69-7.0116 160.99-5.0776c20.306 1.9338 134.69 5.3879 132.76 5.3879z" fill="url(#bc)"/>
  <g fill="#646460">
   <path d="m305.74 829.66s-4.7636-0.68054-4.0831 6.1246c0.68054 6.8052 2.7221 14.291 2.7221 14.291s-6.1246-9.5272-2.7221 4.0831c3.4026 13.61 5.4442 13.61 0 16.332-5.4441 2.7222 12.93 14.971 12.93 14.971s-87.106 8.8468-98.675 8.8468 89.148 5.444 97.314 4.7636c8.1663-0.68054-2.0415 2.7222-5.4441 4.7637-3.4026 2.0416 23.138 4.083 39.47 2.0416 16.332-2.0416 6.1246-6.1248-3.4026-6.8052-9.5272-0.68054 11.569-0.68054 29.262-2.0414 17.694-1.3611-14.971-8.1662-25.179-9.5273s-25.179-4.7637-6.8052-4.7637 25.179 2.722 25.179-2.722c0-5.4442 2.7221-24.499 0-26.54-2.722-2.0416 4.0831 0.68054-0.68051-6.8052s-22.457-7.4857-22.457-7.4857 18.374-4.0831 33.345-6.1246c14.971-2.0416-71.454-2.7221-70.774-3.4026z" filter="url(#ba)"/>
   <path d="m209.1 918.13s40.831 2.0415 69.413-0.68054 44.914-4.0831 66.01-2.722c21.096 1.3609 19.735 0.68042 38.109-0.68054s1.361-6.8052-21.777-5.4442c-23.138 1.3611-46.956-1.361-66.01 2.0416s-36.748 2.7221-49.678 2.7221-36.748 5.4441-36.067 4.7636z" filter="url(#az)"/>
   <path d="m216.59 937.18c2.7221 0 37.428-4.7636 61.927-5.4442 24.499-0.68048 38.789-6.8052 59.886-4.7636 21.096 2.0416 27.901 2.722 43.553 4.0831 15.652 1.361 6.1247-0.68054-9.5272 2.722-15.652 3.4026-38.109 8.1662-31.304 8.1662 6.8052 0 29.943-0.68054 19.054 2.0416-10.888 2.722-16.332 6.1246-39.47 6.1246s-53.08-2.722-31.304-4.7636 63.288-1.361 38.109-4.0831c-25.179-2.722-51.719-2.722-66.691-2.0415-14.971 0.68048-44.914 0-44.234-2.0416z" filter="url(#ay)"/>
   <path d="m227.48 975.97s46.275 0 63.288-1.361 18.374-6.8052 37.428-6.1246c19.054 0.68048 39.47-2.0416 51.039 0.68048 11.569 2.722 21.096 2.0416 0.68051 3.4026-20.416 1.361-37.428 3.4026-34.026 5.4442 3.4026 2.0414 20.416 4.083 15.652 7.4857-4.7636 3.4025-3.4026 3.4025-28.582 4.083-25.179 0.68054-63.969 4.0832-44.914-0.68048 19.054-4.7636 64.649-8.1662 30.623-8.1662s-85.065-3.4025-91.189-4.7636z" filter="url(#ax)"/>
   <path d="m219.31 1014.8c4.0831 0 53.761 0 64.649-0.6806 10.888-0.68048 18.374-6.805 40.15-6.805s23.138 0.68054 40.831 3.4026c17.694 2.722 31.304 1.361 36.748 1.361 5.4441 0 0-3.4026-21.096 3.4026-6.3704 2.055-10.276 8.9156-7.007 17.185 0.94229 2.3835 4.7903 3.0557 7.0491 5.5912 2.8807 3.2336 6.1042 6.5702 7.815 9.9574 7.7064 15.258-12.238 33.219-27.582 33.416-26.408 0.34045-42.114 0.63184-63.438 0.74805-1.4533 0.007935-23.059-15.64-16.568-30.773 1.5939-3.7163 4.8777-9.4965 7.5538-12.783 1.9802-2.4321 3.5114-2.4522 4.3854-4.7176 2.7546-7.1401-0.090454-12.982-1.355-13.18-21.777-3.4026-73.496-5.4442-72.135-6.1247z" filter="url(#aw)"/>
  </g>
  <g fill="#f3f0ed">
   <path d="m337.72 837.15c19.054 0 50.358-6.8052 66.01-1.361s20.416-1.361 22.457 2.722c2.0416 4.0831-0.68051 10.888-3.4026 12.249s4.7636 13.61 4.0831 22.457c-0.68051 8.8466-31.984 14.291-58.524 13.61-26.54-0.6806-31.984-1.3611-14.291-6.1246 17.694-4.7637 18.374-8.8467 17.694-17.013-0.68051-8.1662-8.1662-8.8467-7.4857-11.569 0.68051-2.7221 8.8467 0.68048 4.0831-6.1246-4.7636-6.8052-29.262-8.8467-30.623-8.8467z" filter="url(#av)"/>
   <path d="m347.25 897.71s29.943-3.4026 48.317 0c18.374 3.4025 42.873 0 14.291 6.8052s-54.441 8.8467-73.496 8.1662c-19.054-0.68054-12.249-0.68054 10.208-5.4442 22.457-4.7636 12.93-8.1662 5.4441-8.1662-7.4857 0-2.7221-0.68054-4.7636-1.361z" filter="url(#au)"/>
  </g>
  <path d="m343.16 937.18s26.54-3.4026 52.4 0.68048 55.122 5.4442 4.7636 8.8467c-50.358 3.4026-82.343 6.1246-82.343 6.1246s22.457 0 38.109-6.8052c15.652-6.8051-11.569-6.8051-12.93-8.8467z" fill="#5b5a58" filter="url(#at)"/>
  <path d="m347.93 979.38s21.776-2.0415 47.636-1.361c25.86 0.68054 79.62-3.4026 35.387 4.083-44.234 7.4857-69.413 8.8467-84.384 10.888-14.971 2.0416-8.1662 0.68048 8.8467-5.4442s-7.4857-6.1247-7.4857-8.1662z" fill="#f3f0ed" filter="url(#as)"/>
  <g fill="#938a85">
   <path d="m197.76 893.51s32.146-0.97412 74.034 1.9482c41.887 2.9225 104.23 3.8965 48.706 9.7413-55.525 5.8447-117.87 10.715-117.87 10.715l-4.8706-22.405z" filter="url(#ar)"/>
   <path d="m195.82 939.29c4.8706-0.97418 37.991-4.8707 81.827 0 43.836 4.8706 69.163 8.7672 24.353 10.715-44.81 1.9483-101.31 8.7672-101.31 8.7672l-4.8706-19.482z" filter="url(#aq)"/>
   <path d="m197.76 977.28s27.276 8.7672 68.189 5.8448 66.241-1.9483 61.37-0.97418c-4.8706 0.97418-23.379 14.612-59.422 13.638-36.043-0.97406-70.137 0-70.137 0v-18.508z" filter="url(#ap)"/>
  </g>
  <g fill="#f3f0ed">
   <path d="m359.26 915.95c7.6579 0 31.726-6.5639 53.606-4.376 21.88 2.188-3.282 10.94-28.444 12.034-25.162 1.0941-24.068-6.5639-25.162-7.658z" filter="url(#ao)"/>
   <path d="m354.89 960.8c6.5639 0 16.41-2.188 38.29-3.282 21.88-1.0939 41.572-1.0939 41.572-1.0939s-17.504 6.564-41.572 7.658-36.102-3.282-38.29-3.282z" filter="url(#an)"/>
   <path d="m352.7 1001.3c4.376 0 2.188-4.376 32.82-5.47 30.632-1.0939 45.948 2.1881 45.948 2.1881s7.658 1.0939-27.35 5.4699-50.324-3.282-51.418-2.188z" filter="url(#am)"/>
   <path d="m371.3 1022.1c6.564 0 9.846-2.188 27.35-2.188s3.282 4.376 3.282 4.376-2.188 2.1879-17.504 3.282c-15.316 1.094-10.94-3.282-13.128-5.47z" filter="url(#al)"/>
  </g>
  <path d="m201.26 1036.2s91.775 2.5122 129.6 2.5122c37.824 0 134.51-7.2532 134.51-7.2532" fill="none" filter="url(#ak)" stroke="url(#bb)" stroke-opacity=".533" stroke-width="11"/>
  <g fill="#e3dcd4" fill-opacity=".257">
   <path d="m466.87 883.58s1.2238-4.839-7.5978 1.2682 8.143 11.536 8.143 11.536l-0.5452-12.804z" filter="url(#be)"/>
   <path d="m463.7 924.57s-8.5045-3.0758-9.1831 3.71c-0.67859 6.7859 13.572 11.536 13.572 11.536l-4.3886-15.246z" filter="url(#bf)"/>
   <path d="m461.99 963.56s-9.5001-3.3929-11.536 3.3929c-2.0357 6.7858 15.018 11.308 15.018 11.308l-3.4819-14.701z" filter="url(#bg)"/>
   <path d="m460.13 1003.3s-4.9338-3.7544-6.2909 3.0315c-1.3572 6.7858 11.308 11.536 11.308 11.536l-5.0169-14.567z" filter="url(#ae)"/>
  </g>
  <path d="m199.52 891.5s110.22-4.0521 140.2-6.4833c29.985-2.4313 119.94-0.81049 119.94-0.81049s-76.178 13.777-115.89 13.777c-39.71 0-144.25-5.6728-144.25-6.4832z" fill="#5b5a58" filter="url(#aj)"/>
  <g fill="#64625c">
   <path d="m201.95 936.08s107.78-8.9146 140.2-8.9146c32.416 0 123.18-1.6208 117.51-0.81036-5.6729 0.81036-32.416 9.7249-84.282 11.346-51.866 1.6208-175.05 0.81042-173.43-1.6208z" filter="url(#ai)"/>
   <path d="m207.62 975.79s85.903-5.6728 121.56-6.4833c35.658-0.81036 127.23-4.0519 127.23-4.0519s-12.967 8.9144-59.97 10.535c-47.004 1.6209-191.26 3.2416-188.82 0z" filter="url(#ah)"/>
   <path d="m205.19 1017.9s97.249-5.6728 132.1-8.9145c34.848-3.2416 120.75-4.8624 120.75-4.8624s-8.9145 2.4312-57.539 8.9144-197.74 6.4832-195.31 4.8624z" filter="url(#ag)"/>
  </g>
  <path d="m196.26 843.75s87.52-3.282 125.81-2.1879c38.29 1.0939 147.69 3.2819 147.69 3.2819" fill="none" filter="url(#af)" stroke="#4b4b48" stroke-width="6"/>
 </g>
</svg>
